<?xml version="1.0" encoding="UTF-8"?>
<!--Generator: Apple Native CoreSVG 326-->
<!DOCTYPE svg
PUBLIC "-//W3C//DTD SVG 1.1//EN"
       "http://www.w3.org/Graphics/SVG/1.1/DTD/svg11.dtd">
<svg version="1.1" xmlns="http://www.w3.org/2000/svg" xmlns:xlink="http://www.w3.org/1999/xlink" viewBox="0 0 15.7716 15.8633">
 <g>
  <rect height="15.8633" opacity="0" width="15.7716" x="0" y="0"/>
  <path d="M8.41797 15.3809L9.51171 15.1172C9.37499 14.6582 9.29687 14.1797 9.29687 13.6621C9.29687 10.9668 11.3281 8.93554 14.0039 8.93554C14.4141 8.93554 14.7852 8.98438 15.1563 9.07226L15.4297 7.98828C14.9707 7.86132 14.502 7.80274 14.0039 7.80274C10.7813 7.80274 8.16405 10.4199 8.16405 13.6621C8.16405 14.2578 8.25195 14.8437 8.41797 15.3809ZM0.48828 6.66016L0.263672 7.76368C0.742192 7.88086 1.24999 7.94922 1.76757 7.94922C4.99023 7.94922 7.60741 5.33204 7.60741 2.0996C7.60741 1.5332 7.52929 0.98632 7.38281 0.46874L6.24999 0.61524C6.39649 1.07422 6.47461 1.57226 6.47461 2.0996C6.47461 4.78516 4.44335 6.8164 1.76757 6.8164C1.31835 6.8164 0.898432 6.76758 0.48828 6.66016ZM7.88085 0C3.53515 0 2.22045e-16 3.5254 2.22045e-16 7.88086C2.22045e-16 12.2363 3.53515 15.7617 7.88085 15.7617C12.2363 15.7617 15.7715 12.2363 15.7715 7.88086C15.7715 3.5254 12.2363 0 7.88085 0ZM7.88085 1.17188C11.582 1.17188 14.5899 4.17968 14.5899 7.88086C14.5899 11.582 11.582 14.5898 7.88085 14.5898C4.17969 14.5898 1.18163 11.582 1.18163 7.88086C1.18163 4.17968 4.17969 1.17188 7.88085 1.17188Z" fill="black"/>
 </g>
</svg>
